<svg width="27" height="32" viewBox="0 0 27 32" fill="none" xmlns="http://www.w3.org/2000/svg">
<mask id="path-1-inside-1_1248_3237" fill="white">
<path fill-rule="evenodd" clip-rule="evenodd" d="M9.6187 5.89474H16.4866C15.9722 4.49698 14.6289 3.5 13.0526 3.5C11.4764 3.5 10.133 4.49698 9.6187 5.89474ZM6.00584 5.89474H3C1.34315 5.89474 0 7.23788 0 8.89473V29C0 30.6569 1.34314 32 3 32H23.1053C24.7621 32 26.1053 30.6569 26.1053 29V8.89474C26.1053 7.23788 24.7621 5.89474 23.1053 5.89474H20.0994C19.5028 2.54399 16.5748 0 13.0526 0C9.53045 0 6.60244 2.54399 6.00584 5.89474Z"/>
</mask>
<path fill-rule="evenodd" clip-rule="evenodd" d="M9.6187 5.89474H16.4866C15.9722 4.49698 14.6289 3.5 13.0526 3.5C11.4764 3.5 10.133 4.49698 9.6187 5.89474ZM6.00584 5.89474H3C1.34315 5.89474 0 7.23788 0 8.89473V29C0 30.6569 1.34314 32 3 32H23.1053C24.7621 32 26.1053 30.6569 26.1053 29V8.89474C26.1053 7.23788 24.7621 5.89474 23.1053 5.89474H20.0994C19.5028 2.54399 16.5748 0 13.0526 0C9.53045 0 6.60244 2.54399 6.00584 5.89474Z" fill="white"/>
<path d="M9.6187 5.89474L8.68022 5.54941L8.18518 6.89474H9.6187V5.89474ZM16.4866 5.89474V6.89474H17.9201L17.425 5.54941L16.4866 5.89474ZM6.00584 5.89474V6.89474H6.84351L6.99035 6.07003L6.00584 5.89474ZM20.0994 5.89474L19.1149 6.07003L19.2617 6.89474H20.0994V5.89474ZM9.6187 6.89474H16.4866V4.89474H9.6187V6.89474ZM17.425 5.54941C16.7707 3.77103 15.0613 2.5 13.0526 2.5V4.5C14.1964 4.5 15.1738 5.22293 15.5481 6.24006L17.425 5.54941ZM13.0526 2.5C11.0439 2.5 9.3346 3.77103 8.68022 5.54941L10.5572 6.24006C10.9314 5.22293 11.9089 4.5 13.0526 4.5V2.5ZM3 6.89474H6.00584V4.89474H3V6.89474ZM1 8.89473C1 7.79017 1.89543 6.89474 3 6.89474V4.89474C0.790862 4.89474 -1 6.68559 -1 8.89473H1ZM1 29V8.89473H-1V29H1ZM3 31C1.89543 31 1 30.1046 1 29H-1C-1 31.2091 0.790857 33 3 33V31ZM23.1053 31H3V33H23.1053V31ZM25.1053 29C25.1053 30.1046 24.2098 31 23.1053 31V33C25.3144 33 27.1053 31.2091 27.1053 29H25.1053ZM25.1053 8.89474V29H27.1053V8.89474H25.1053ZM23.1053 6.89474C24.2098 6.89474 25.1053 7.79017 25.1053 8.89474H27.1053C27.1053 6.6856 25.3144 4.89474 23.1053 4.89474V6.89474ZM20.0994 6.89474H23.1053V4.89474H20.0994V6.89474ZM21.0839 5.71944C20.4039 1.8999 17.0679 -1 13.0526 -1V1C16.0817 1 18.6018 3.18807 19.1149 6.07003L21.0839 5.71944ZM13.0526 -1C9.03733 -1 5.70139 1.8999 5.02132 5.71944L6.99035 6.07003C7.50349 3.18807 10.0236 1 13.0526 1V-1Z" fill="black" mask="url(#path-1-inside-1_1248_3237)"/>
</svg>
