<svg width="28" height="28" viewBox="0 0 28 28" fill="none" xmlns="http://www.w3.org/2000/svg">
<rect x="6.21069" y="7.94092" width="14.5683" height="14.7476" fill="#FD7E23"/>
<path d="M20.7788 6.80675H18.5375C18.5375 4.29967 16.5316 2.26904 14.055 2.26904C11.5784 2.26904 9.57241 4.29967 9.57241 6.80675H7.33113C6.09842 6.80675 5.08984 7.82774 5.08984 9.07561V22.6887C5.08984 23.9366 6.09842 24.9576 7.33113 24.9576H20.7788C22.0115 24.9576 23.0201 23.9366 23.0201 22.6887V9.07561C23.0201 7.82774 22.0115 6.80675 20.7788 6.80675ZM14.055 4.5379C15.2877 4.5379 16.2963 5.55888 16.2963 6.80675H11.8137C11.8137 5.55888 12.8223 4.5379 14.055 4.5379ZM20.7788 22.6887H7.33113V9.07561H9.57241V11.3445C9.57241 11.9684 10.0767 12.4789 10.693 12.4789C11.3094 12.4789 11.8137 11.9684 11.8137 11.3445V9.07561H16.2963V11.3445C16.2963 11.9684 16.8005 12.4789 17.4169 12.4789C18.0332 12.4789 18.5375 11.9684 18.5375 11.3445V9.07561H20.7788V22.6887Z" fill="#FD7E23"/>
<path d="M14.6074 10L15.8418 14.3011L20.3138 14.1459L16.6046 16.6489L18.1341 20.8541L14.6074 18.1L11.0807 20.8541L12.6102 16.6489L8.90108 14.1459L13.3731 14.3011L14.6074 10Z" fill="#FFE600"/>
</svg>
