<svg width="452" height="713" viewBox="0 0 452 713" fill="none" xmlns="http://www.w3.org/2000/svg">
<path fill-rule="evenodd" clip-rule="evenodd" d="M20 0C8.95431 0 0 8.95429 0 20V692.9C0 703.945 8.95431 712.9 20 712.9H432C443.046 712.9 452 703.945 452 692.9V20C452 8.95431 443.046 0 432 0H20ZM441.835 46.081H10.1647V630.225H441.835V46.081Z" fill="#FD7E23"/>
<path d="M10.1646 30.1651C10.1646 19.1194 19.1189 10.165 30.1646 10.165H277.642C278.126 10.165 278.518 10.5572 278.518 11.041V11.041C278.518 30.3931 262.83 46.0811 243.478 46.0811H10.1646V30.1651Z" fill="#F6F6F6"/>
<path d="M10.165 630.226H441.835V682.735C441.835 693.781 432.881 702.735 421.835 702.735H30.1651C19.1194 702.735 10.165 693.781 10.165 682.735V630.226Z" fill="#F6F6F6"/>
<path d="M10 557V557C50.8691 557 84 590.131 84 631V631H10V557Z" fill="#FD7E23"/>
</svg>
